<svg width="32" height="32" viewBox="0 0 32 32" fill="none" xmlns="http://www.w3.org/2000/svg">
<path d="M21.2349 5.23535C19.3346 5.23535 17.5504 5.73424 15.9998 6.60227C14.4489 5.73424 12.665 5.23535 10.7647 5.23535C4.82961 5.23535 0 10.0638 0 16.0003C0 21.9371 4.82848 26.7652 10.7649 26.7652C12.6652 26.7652 14.4491 26.2663 16 25.3981C17.5504 26.2661 19.3348 26.7652 21.2351 26.7652C27.1719 26.7652 32 21.9371 32 16.0003C32 10.0638 27.1719 5.23535 21.2349 5.23535ZM10.7649 25.0037C5.7999 25.0037 1.76148 20.9668 1.76148 16.0001C1.76148 11.0351 5.7999 6.99664 10.7649 6.99664C12.0367 6.99664 13.2449 7.26558 14.3417 7.74206C11.9793 9.71861 10.4713 12.686 10.4713 16.0003C10.4713 19.3145 11.9793 22.2834 14.3417 24.2583C13.2436 24.7351 12.0356 25.0037 10.7649 25.0037ZM19.767 16.0003C19.767 19.0106 18.2751 21.6757 15.9998 23.311C13.7229 21.6745 12.2326 19.0128 12.2326 16.0003C12.2326 12.9894 13.724 10.3249 15.9998 8.69013C18.2773 10.3249 19.767 12.9892 19.767 16.0003ZM21.2349 25.0037C19.9631 25.0037 18.7568 24.7351 17.6581 24.2581C20.0205 22.2812 21.5287 19.3155 21.5287 16.0001C21.5287 12.6847 20.0205 9.71748 17.6581 7.74206C18.7568 7.26558 19.9631 6.99664 21.2349 6.99664C26.1994 6.99664 30.2385 11.0351 30.2385 16.0001C30.2385 20.967 26.1995 25.0037 21.2349 25.0037Z" fill="white" fill-opacity="0.3"/>
</svg>
