<svg width="24" height="20" viewBox="0 0 24 20" fill="none" xmlns="http://www.w3.org/2000/svg">
<path d="M9.27311 6.50317L1.59475 9.57817C1.33411 9.6826 1.12562 9.88628 1.01513 10.1444C0.904631 10.4025 0.901181 10.694 1.00553 10.9547L4.081 18.6335C4.18574 18.8939 4.38947 19.1022 4.64754 19.2127C4.90561 19.3232 5.19696 19.3269 5.45772 19.2229L13.1358 16.1475C13.3966 16.043 13.6051 15.8392 13.7156 15.581C13.8261 15.3228 13.8295 15.0312 13.7251 14.7705L10.6496 7.09262C10.545 6.83214 10.3413 6.6238 10.0832 6.5133C9.82518 6.4028 9.53384 6.39915 9.27311 6.50317ZM9.88788 7.39848L12.9633 15.0754C12.9754 15.1045 12.9815 15.1356 12.9811 15.167C12.9808 15.1985 12.9741 15.2295 12.9615 15.2582C12.9492 15.2871 12.9314 15.3132 12.909 15.3351C12.8866 15.357 12.86 15.3742 12.8309 15.3857L5.1528 18.461C5.12373 18.4726 5.09265 18.4785 5.06133 18.4781C5.03001 18.4778 4.99907 18.4712 4.97027 18.4589C4.94147 18.4466 4.91538 18.4287 4.8935 18.4063C4.87161 18.3839 4.85436 18.3574 4.84272 18.3283L1.76725 10.6502C1.74375 10.5916 1.7445 10.526 1.76933 10.4679C1.79416 10.4098 1.84104 10.3639 1.89968 10.3404L9.57804 7.26489C9.60715 7.25329 9.63827 7.24754 9.6696 7.24797C9.70094 7.24841 9.73188 7.25502 9.76066 7.26743C9.78944 7.27984 9.81549 7.2978 9.83732 7.32029C9.85915 7.34277 9.87633 7.36935 9.88788 7.39848Z" fill="#453464"/>
<path d="M5.30517 14.5831C5.21047 14.8044 5.18353 15.0488 5.22773 15.2855C5.27194 15.5221 5.38532 15.7403 5.55353 15.9125C5.72174 16.0847 5.93723 16.2031 6.17275 16.2528C6.40828 16.3025 6.65325 16.2813 6.8767 16.1918C7.10016 16.1023 7.29205 15.9485 7.42812 15.75C7.5642 15.5514 7.63833 15.3169 7.64116 15.0762C7.64399 14.8355 7.57539 14.5994 7.44402 14.3977C7.31265 14.196 7.12442 14.0378 6.90314 13.943C6.75631 13.8791 6.59825 13.845 6.43812 13.8426C6.278 13.8402 6.119 13.8697 5.97035 13.9293C5.8217 13.9888 5.68635 14.0773 5.57217 14.1896C5.45798 14.3019 5.36723 14.4357 5.30517 14.5834V14.5831ZM6.5804 14.6973C6.6526 14.7282 6.71401 14.7798 6.75687 14.8456C6.79972 14.9114 6.8221 14.9884 6.82118 15.067C6.82025 15.1455 6.79605 15.222 6.75165 15.2867C6.70725 15.3515 6.64464 15.4017 6.57173 15.4309C6.5115 15.4546 6.44638 15.4634 6.38202 15.4563C6.31765 15.4492 6.25598 15.4266 6.20234 15.3903C6.14869 15.3541 6.10469 15.3053 6.07415 15.2482C6.04361 15.1911 6.02744 15.1274 6.02704 15.0627C6.02699 14.9969 6.04326 14.9322 6.07439 14.8744C6.10552 14.8165 6.15053 14.7673 6.20539 14.7311C6.26025 14.6949 6.32324 14.6729 6.38869 14.6671C6.45415 14.6613 6.52002 14.6718 6.5804 14.6977V14.6973Z" fill="#453464"/>
<path d="M7.18806 10.1845C7.09332 10.4058 7.06633 10.6503 7.11053 10.887C7.15472 11.1236 7.2681 11.3419 7.43634 11.5141C7.60457 11.6864 7.8201 11.8048 8.05567 11.8546C8.29125 11.9043 8.53628 11.8831 8.75978 11.7936C8.98329 11.7041 9.17524 11.5503 9.31134 11.3517C9.44745 11.1531 9.52161 10.9186 9.52445 10.6779C9.52728 10.4371 9.45866 10.2009 9.32727 9.99918C9.19587 9.79743 9.0076 9.63917 8.78626 9.54442C8.48935 9.41769 8.15429 9.41394 7.85461 9.53398C7.55493 9.65403 7.31513 9.88806 7.18782 10.1847L7.18806 10.1845ZM8.46329 10.2986C8.52934 10.3268 8.58652 10.3724 8.62874 10.4304C8.67097 10.4885 8.69667 10.5569 8.7031 10.6285C8.70953 10.7 8.69646 10.7719 8.66528 10.8366C8.6341 10.9012 8.58597 10.9563 8.52601 10.9958C8.46605 11.0353 8.3965 11.0578 8.32477 11.0609C8.25303 11.0641 8.18179 11.0477 8.11861 11.0136C8.05544 10.9794 8.00269 10.9288 7.96599 10.8671C7.92929 10.8054 7.90999 10.7349 7.91017 10.6631C7.91014 10.6096 7.92107 10.5566 7.94228 10.5075C7.984 10.411 8.06218 10.3348 8.15977 10.2957C8.25736 10.2566 8.36647 10.2577 8.46329 10.2986Z" fill="#453464"/>
<path d="M12.6816 1.76009V10.0314C12.682 10.3121 12.7937 10.5812 12.9922 10.7797C13.1907 10.9781 13.4598 11.0898 13.7405 11.0901H22.0119C22.2926 11.0898 22.5617 10.9781 22.7601 10.7797C22.9586 10.5812 23.0702 10.3121 23.0705 10.0314V1.76009C23.0702 1.47938 22.9586 1.21026 22.7601 1.01175C22.5617 0.813243 22.2926 0.701551 22.0119 0.70118H13.7405C13.4598 0.701489 13.1906 0.813152 12.9921 1.01167C12.7936 1.21019 12.682 1.47934 12.6816 1.76009ZM22.0119 1.52149C22.0751 1.52155 22.1357 1.54672 22.1804 1.59146C22.2251 1.6362 22.2502 1.69685 22.2502 1.76009V10.0314C22.2502 10.0946 22.225 10.1552 22.1804 10.1999C22.1357 10.2446 22.0751 10.2697 22.0119 10.2698H13.7405C13.6773 10.2698 13.6167 10.2447 13.5719 10.2C13.5272 10.1553 13.502 10.0947 13.502 10.0314V1.76009C13.502 1.69681 13.5271 1.63612 13.5718 1.59138C13.6166 1.54663 13.6773 1.52149 13.7405 1.52149H22.0119Z" fill="#453464"/>
<path d="M14.4512 8.28778C14.4512 8.52854 14.5226 8.76391 14.6563 8.9641C14.7901 9.16429 14.9802 9.32032 15.2027 9.41246C15.4251 9.5046 15.6699 9.52871 15.906 9.48174C16.1422 9.43476 16.3591 9.31882 16.5293 9.14857C16.6996 8.97832 16.8155 8.76141 16.8625 8.52527C16.9095 8.28913 16.8853 8.04436 16.7932 7.82192C16.7011 7.59947 16.545 7.40935 16.3448 7.27558C16.1447 7.14182 15.9093 7.07043 15.6685 7.07043C15.3458 7.0708 15.0364 7.19917 14.8081 7.42739C14.5799 7.65561 14.4515 7.96503 14.4512 8.28778ZM16.0656 8.28778C16.0656 8.3663 16.0423 8.44306 15.9986 8.50836C15.955 8.57365 15.893 8.62454 15.8205 8.65459C15.7479 8.68464 15.6681 8.6925 15.5911 8.67718C15.514 8.66186 15.4433 8.62405 15.3878 8.56852C15.3323 8.51299 15.2944 8.44225 15.2791 8.36523C15.2638 8.28822 15.2717 8.20838 15.3017 8.13584C15.3318 8.06329 15.3827 8.00128 15.4479 7.95765C15.5132 7.91403 15.59 7.89074 15.6685 7.89074C15.7737 7.89111 15.8745 7.93306 15.9489 8.00744C16.0232 8.08182 16.0652 8.18259 16.0656 8.28778Z" fill="#453464"/>
<path d="M14.4512 3.5036C14.4512 3.74437 14.5226 3.97973 14.6563 4.17992C14.7901 4.38011 14.9802 4.53614 15.2027 4.62828C15.4251 4.72042 15.6699 4.74453 15.906 4.69756C16.1422 4.65058 16.3591 4.53464 16.5293 4.36439C16.6996 4.19414 16.8155 3.97723 16.8625 3.74109C16.9095 3.50495 16.8853 3.26018 16.7932 3.03774C16.7011 2.8153 16.545 2.62517 16.3448 2.49141C16.1447 2.35764 15.9093 2.28625 15.6685 2.28625C15.3458 2.28662 15.0364 2.41499 14.8081 2.64321C14.5799 2.87143 14.4515 3.18085 14.4512 3.5036ZM16.0656 3.5036C16.0656 3.58212 16.0423 3.65889 15.9986 3.72418C15.955 3.78947 15.893 3.84036 15.8205 3.87041C15.7479 3.90046 15.6681 3.90832 15.5911 3.893C15.514 3.87768 15.4433 3.83987 15.3878 3.78434C15.3323 3.72882 15.2944 3.65807 15.2791 3.58105C15.2638 3.50404 15.2717 3.42421 15.3017 3.35166C15.3318 3.27911 15.3827 3.2171 15.4479 3.17348C15.5132 3.12985 15.59 3.10656 15.6685 3.10656C15.7737 3.10693 15.8745 3.14888 15.9489 3.22326C16.0232 3.29764 16.0652 3.39841 16.0656 3.5036Z" fill="#453464"/>
<path d="M18.8633 8.28778C18.8633 8.52856 18.9347 8.76393 19.0685 8.96413C19.2022 9.16432 19.3924 9.32035 19.6148 9.41248C19.8373 9.50462 20.0821 9.52871 20.3182 9.48172C20.5543 9.43473 20.7713 9.31876 20.9415 9.14849C21.1117 8.97822 21.2277 8.76129 21.2746 8.52513C21.3215 8.28897 21.2974 8.0442 21.2052 7.82176C21.1131 7.59932 20.957 7.40921 20.7568 7.27548C20.5565 7.14174 20.3212 7.07039 20.0804 7.07043C19.7577 7.07087 19.4483 7.19927 19.2202 7.42748C18.992 7.65569 18.8637 7.96507 18.8633 8.28778ZM20.4777 8.28778C20.4777 8.3663 20.4544 8.44305 20.4108 8.50833C20.3671 8.57362 20.3051 8.62451 20.2326 8.65457C20.1601 8.68462 20.0803 8.6925 20.0033 8.6772C19.9262 8.6619 19.8555 8.62411 19.8 8.56861C19.7444 8.5131 19.7066 8.44238 19.6912 8.36538C19.6759 8.28838 19.6837 8.20856 19.7137 8.136C19.7438 8.06345 19.7946 8.00143 19.8599 7.95777C19.9251 7.91412 20.0019 7.89079 20.0804 7.89075C20.1856 7.89106 20.2864 7.93298 20.3609 8.00736C20.4353 8.08175 20.4773 8.18255 20.4777 8.28778Z" fill="#453464"/>
<path d="M18.8633 3.5036C18.8633 3.74438 18.9347 3.97975 19.0685 4.17995C19.2022 4.38014 19.3924 4.53617 19.6148 4.6283C19.8373 4.72043 20.0821 4.74453 20.3182 4.69754C20.5543 4.65055 20.7713 4.53458 20.9415 4.36431C21.1117 4.19404 21.2277 3.97711 21.2746 3.74095C21.3215 3.50479 21.2974 3.26002 21.2052 3.03758C21.1131 2.81515 20.957 2.62504 20.7568 2.49131C20.5565 2.35757 20.3212 2.28621 20.0804 2.28626C19.7577 2.28669 19.4483 2.4151 19.2202 2.64331C18.992 2.87152 18.8637 3.1809 18.8633 3.5036ZM20.4777 3.5036C20.4777 3.58207 20.4544 3.65878 20.4108 3.72404C20.3673 3.7893 20.3053 3.84018 20.2329 3.87028C20.1604 3.90037 20.0807 3.90831 20.0037 3.89311C19.9267 3.8779 19.856 3.84022 19.8004 3.78484C19.7448 3.72945 19.7069 3.65884 19.6914 3.58192C19.6759 3.50499 19.6836 3.42521 19.7134 3.35264C19.7432 3.28007 19.7939 3.21796 19.859 3.17417C19.9241 3.13037 20.0008 3.10685 20.0792 3.10657C20.1846 3.10657 20.2858 3.14836 20.3605 3.22277C20.4351 3.29719 20.4773 3.39818 20.4777 3.5036Z" fill="#453464"/>
</svg>
