<svg width="32" height="22" viewBox="0 0 32 22" fill="none" xmlns="http://www.w3.org/2000/svg">
<path d="M21.2349 0.235352C19.3346 0.235352 17.5504 0.734245 15.9998 1.60227C14.4489 0.734245 12.665 0.235352 10.7647 0.235352C4.82961 0.235352 0 5.06383 0 11.0003C0 16.9371 4.82848 21.7652 10.7649 21.7652C12.6652 21.7652 14.4491 21.2663 16 20.3981C17.5504 21.2661 19.3348 21.7652 21.2351 21.7652C27.1719 21.7652 32 16.9371 32 11.0003C32 5.06383 27.1719 0.235352 21.2349 0.235352ZM10.7649 20.0037C5.7999 20.0037 1.76148 15.9668 1.76148 11.0001C1.76148 6.03506 5.7999 1.99664 10.7649 1.99664C12.0367 1.99664 13.2449 2.26558 14.3417 2.74206C11.9793 4.71861 10.4713 7.68598 10.4713 11.0003C10.4713 14.3145 11.9793 17.2834 14.3417 19.2583C13.2436 19.7351 12.0356 20.0037 10.7649 20.0037ZM19.767 11.0003C19.767 14.0106 18.2751 16.6757 15.9998 18.311C13.7229 16.6745 12.2326 14.0128 12.2326 11.0003C12.2326 7.98939 13.724 5.32486 15.9998 3.69013C18.2773 5.32486 19.767 7.9892 19.767 11.0003ZM21.2349 20.0037C19.9631 20.0037 18.7568 19.7351 17.6581 19.2581C20.0205 17.2812 21.5287 14.3155 21.5287 11.0001C21.5287 7.68467 20.0205 4.71748 17.6581 2.74206C18.7568 2.26558 19.9631 1.99664 21.2349 1.99664C26.1993 1.99664 30.2385 6.03506 30.2385 11.0001C30.2385 15.967 26.1995 20.0037 21.2349 20.0037Z" fill="white" fill-opacity="0.3"/>
</svg>
