<svg width="18" height="18" viewBox="0 0 18 18" fill="none" xmlns="http://www.w3.org/2000/svg">
<path d="M7.00239 1.38026C8.44218 2.066 9.65815 3.14575 10.5094 4.49433C11.3606 5.84292 11.8121 7.40513 11.8118 8.99988C11.8121 10.5946 11.3606 12.1568 10.5094 13.5054C9.65815 14.854 8.44218 15.9338 7.00239 16.6195C8.167 16.9235 9.38582 16.9566 10.5652 16.7161C11.7446 16.4755 12.8531 15.9679 13.8057 15.2321C14.7582 14.4963 15.5294 13.5519 16.0601 12.4715C16.5907 11.3912 16.8666 10.2035 16.8666 8.99988C16.8666 7.79624 16.5907 6.6086 16.0601 5.52823C15.5294 4.44785 14.7582 3.50349 13.8057 2.76769C12.8531 2.03188 11.7446 1.52422 10.5652 1.28371C9.38582 1.04319 8.167 1.07622 7.00239 1.38026V1.38026ZM4.70964 1.08663C6.80851 -0.0511937 9.27342 -0.308645 11.5621 0.370916C13.8508 1.05048 15.7758 2.61139 16.9136 4.71026C18.0515 6.80913 18.3089 9.27404 17.6294 11.5627C16.9498 13.8514 15.3889 15.7764 13.29 16.9143C11.1908 18.0522 8.72558 18.3097 6.43657 17.63C4.14756 16.9504 2.2223 15.3892 1.08433 13.2901C-0.0536521 11.1909 -0.311128 8.72565 0.368539 6.43664C1.04821 4.14762 2.60934 2.22236 4.70851 1.08438L4.70964 1.08663Z" fill="white"/>
</svg>
