<svg width="23" height="22" viewBox="0 0 23 22" fill="none" xmlns="http://www.w3.org/2000/svg">
<path d="M10.7576 2.0625C10.5192 2.0625 10.2809 2.1175 10.0517 2.2L3.30508 4.99583C2.85661 5.17948 2.49943 5.53371 2.31206 5.98064C2.1247 6.42757 2.12248 6.93061 2.30591 7.37917L6.85258 18.3333C6.98688 18.6656 7.21561 18.9512 7.51049 19.1548C7.80537 19.3585 8.15347 19.4712 8.51174 19.4792C8.75008 19.4792 8.99758 19.4517 9.23591 19.3417L15.9917 16.5458C16.3178 16.4075 16.5974 16.1785 16.7972 15.886C16.997 15.5935 17.1088 15.2499 17.1192 14.8958C17.1284 14.6667 17.0826 14.4008 17.0001 14.1625L12.4167 3.20833C12.2872 2.87285 12.0596 2.58414 11.7637 2.37977C11.4678 2.17541 11.1172 2.06485 10.7576 2.0625ZM13.9476 2.0625L17.1101 9.71667V3.89583C17.1101 3.4096 16.9169 2.94329 16.5731 2.59947C16.2293 2.25565 15.763 2.0625 15.2767 2.0625H13.9476ZM18.9526 3.47417V11.7517L21.1801 6.38C21.2714 6.15795 21.318 5.92006 21.3172 5.67997C21.3164 5.43988 21.2682 5.20231 21.1753 4.98088C21.0825 4.75946 20.9469 4.55854 20.7762 4.38965C20.6056 4.22075 20.4033 4.08721 20.1809 3.99667L18.9526 3.47417ZM10.7576 3.86833L15.3226 14.8867L8.54841 17.6917L3.98341 6.6825" fill="white"/>
</svg>
