<svg width="22" height="22" viewBox="0 0 22 22" fill="none" xmlns="http://www.w3.org/2000/svg">
<path d="M17.2268 17.163C18.8531 15.524 19.7657 13.3087 19.7657 10.9998C19.7657 8.69091 18.8531 6.4756 17.2268 4.83664C17.2171 4.82512 17.2091 4.81257 17.1982 4.80166C17.1873 4.79074 17.1747 4.78275 17.1631 4.77296C15.5242 3.1467 13.3089 2.23413 11 2.23413C8.69116 2.23413 6.47587 3.1467 4.83693 4.77296C4.82533 4.78275 4.81278 4.79074 4.80187 4.80166C4.79095 4.81257 4.78296 4.82512 4.77325 4.83664C3.14696 6.4756 2.23437 8.69091 2.23438 10.9998C2.23438 13.3087 3.14696 15.524 4.77325 17.163C4.78296 17.1745 4.79095 17.1871 4.80187 17.198C4.81278 17.2089 4.82533 17.2169 4.83693 17.2266C6.47588 18.8528 8.69117 19.7654 11 19.7654C13.3089 19.7654 15.5242 18.8528 17.1631 17.2266C17.1747 17.2169 17.1873 17.2089 17.1982 17.198C17.2091 17.1871 17.2171 17.1745 17.2268 17.163ZM3.28327 11.5154H5.69725C5.79896 12.5687 6.21341 13.5676 6.88731 14.3834L5.1812 16.0894C4.06236 14.8152 3.39525 13.2074 3.28335 11.5154H3.28327ZM5.18137 5.91025L6.88723 7.61611C6.21337 8.43204 5.79898 9.43087 5.69734 10.4842H3.28335C3.39532 8.79217 4.06252 7.1844 5.18145 5.91025H5.18137ZM18.7167 10.4842H16.3027C16.201 9.43088 15.7865 8.43208 15.1126 7.6162L16.8186 5.91025C17.9376 7.18439 18.6048 8.79216 18.7168 10.4842H18.7167ZM11 15.2967C10.1502 15.2967 9.31943 15.0447 8.61281 14.5725C7.90619 14.1004 7.35545 13.4293 7.03023 12.6442C6.70501 11.859 6.61992 10.995 6.78571 10.1615C6.95151 9.32802 7.36075 8.56239 7.96167 7.96147C8.5626 7.36054 9.32823 6.9513 10.1617 6.7855C10.9953 6.61971 11.8592 6.7048 12.6444 7.03002C13.4295 7.35524 14.1006 7.90598 14.5727 8.6126C15.0449 9.31922 15.2969 10.15 15.2969 10.9998C15.2956 12.139 14.8425 13.2312 14.037 14.0368C13.2314 14.8423 12.1392 15.2954 11 15.2967V15.2967ZM14.3836 6.8871C13.5678 6.21321 12.569 5.79876 11.5156 5.69704V3.28306C13.2077 3.39502 14.8154 4.06222 16.0896 5.18116L14.3836 6.8871ZM10.4844 5.69704C9.43109 5.79876 8.43229 6.21321 7.61641 6.8871L5.91046 5.18099C7.18464 4.06214 8.79241 3.39504 10.4844 3.28314V5.69704ZM7.61641 15.1125C8.43229 15.7864 9.43109 16.2009 10.4844 16.3026V18.7166C8.79238 18.6046 7.1846 17.9374 5.91046 16.8185L7.61641 15.1125ZM11.5156 16.3026C12.569 16.2009 13.5678 15.7864 14.3836 15.1125L16.0896 16.8185C14.8154 17.9374 13.2077 18.6046 11.5156 18.7166V16.3026ZM15.1127 14.3834C15.7866 13.5676 16.2011 12.5687 16.3028 11.5154H18.7168C18.6048 13.2074 17.9377 14.8152 16.8188 16.0894L15.1127 14.3834Z" fill="white"/>
</svg>
